<?xml version="1.0" standalone="no"?>
<!DOCTYPE svg PUBLIC "-//W3C//DTD SVG 20010904//EN"
 "http://www.w3.org/TR/2001/REC-SVG-20010904/DTD/svg10.dtd">
<svg version="1.0" xmlns="http://www.w3.org/2000/svg"
 width="500.000000pt" height="500.000000pt" viewBox="0 0 500.000000 500.000000"
 preserveAspectRatio="xMidYMid meet">

<g transform="translate(0.000000,500.000000) scale(0.100000,-0.100000)"
fill="#000000" stroke="none">
<path d="M738 4933 c29 -2 74 -2 100 0 26 2 2 3 -53 3 -55 0 -76 -1 -47 -3z"/>
<path d="M625 4900 c-3 -5 -1 -10 4 -10 6 0 11 5 11 10 0 6 -2 10 -4 10 -3 0
-8 -4 -11 -10z"/>
<path d="M4165 4900 c3 -5 8 -10 11 -10 2 0 4 5 4 10 0 6 -5 10 -11 10 -5 0
-7 -4 -4 -10z"/>
<path d="M610 4845 c0 -8 5 -15 10 -15 6 0 10 7 10 15 0 8 -4 15 -10 15 -5 0
-10 -7 -10 -15z"/>
<path d="M4020 4833 c0 -5 5 -15 10 -23 8 -12 10 -11 10 8 0 12 -4 22 -10 22
-5 0 -10 -3 -10 -7z"/>
<path d="M3838 4813 c7 -3 16 -2 19 1 4 3 -2 6 -13 5 -11 0 -14 -3 -6 -6z"/>
<path d="M698 4750 c2 -22 8 -40 13 -40 10 0 12 40 3 64 -11 29 -20 16 -16
-24z"/>
<path d="M4170 4774 c0 -8 5 -12 10 -9 6 4 8 11 5 16 -9 14 -15 11 -15 -7z"/>
<path d="M4021 4675 c1 -58 4 -117 9 -133 4 -16 7 25 7 106 0 72 -4 132 -8
132 -5 0 -8 -47 -8 -105z"/>
<path d="M705 4590 c0 -50 3 -90 8 -90 4 0 7 41 7 90 0 50 -3 90 -7 90 -5 0
-8 -41 -8 -90z"/>
<path d="M4281 4574 c0 -11 3 -14 6 -6 3 7 2 16 -1 19 -3 4 -6 -2 -5 -13z"/>
<path d="M841 4534 c0 -11 3 -14 6 -6 3 7 2 16 -1 19 -3 4 -6 -2 -5 -13z"/>
<path d="M4172 4420 c0 -14 2 -19 5 -12 2 6 2 18 0 25 -3 6 -5 1 -5 -13z"/>
<path d="M668 4343 c6 -2 18 -2 25 0 6 3 1 5 -13 5 -14 0 -19 -2 -12 -5z"/>
<path d="M710 4346 c0 -2 9 -6 20 -9 11 -3 18 -1 14 4 -5 9 -34 13 -34 5z"/>
<path d="M868 4343 c6 -2 18 -2 25 0 6 3 1 5 -13 5 -14 0 -19 -2 -12 -5z"/>
<path d="M2355 4010 c-27 -5 -82 -9 -121 -9 -39 -1 -95 -5 -125 -10 -30 -6
-88 -15 -129 -21 -41 -5 -95 -15 -120 -20 -25 -6 -115 -24 -200 -41 -226 -45
-391 -97 -650 -206 -234 -99 -369 -175 -539 -302 -40 -31 -80 -60 -88 -66 -27
-18 -167 -159 -208 -209 -52 -63 -133 -216 -152 -286 -9 -35 -16 -131 -20
-260 -5 -176 -3 -214 11 -265 22 -77 87 -205 139 -275 74 -98 279 -291 347
-325 19 -9 44 -25 55 -35 60 -51 349 -201 520 -270 44 -17 105 -42 135 -55 30
-13 74 -28 97 -34 23 -6 70 -21 105 -32 97 -31 362 -88 513 -110 39 -5 99 -14
135 -19 181 -27 315 -33 690 -34 223 -1 432 2 465 6 33 4 101 12 150 17 50 6
133 17 185 26 52 9 120 20 150 25 72 11 309 66 340 78 14 6 45 16 70 22 81 23
194 62 280 97 106 44 354 165 358 175 2 5 9 8 15 8 7 0 62 31 122 69 77 48
111 75 113 90 4 28 -8 26 -37 -4 -13 -14 -29 -25 -36 -25 -7 0 -40 -20 -73
-45 -33 -25 -67 -45 -76 -45 -9 0 -16 -4 -16 -9 0 -8 -191 -106 -310 -159
-102 -45 -380 -136 -380 -125 0 4 -8 -1 -17 -9 -21 -17 -77 -34 -183 -54 -41
-8 -97 -20 -125 -28 -27 -8 -84 -20 -125 -26 -41 -5 -104 -15 -140 -21 -206
-33 -308 -40 -605 -46 -295 -5 -364 -3 -655 23 -108 9 -442 60 -505 76 -22 6
-57 17 -78 24 -21 8 -42 12 -47 9 -8 -5 -151 29 -185 44 -71 32 -127 51 -151
51 -15 0 -45 9 -68 19 -421 196 -450 212 -693 388 -90 65 -283 263 -291 299
-2 8 -8 14 -13 14 -6 0 -17 15 -25 33 -8 17 -18 39 -23 47 -35 61 -54 108 -65
162 -8 35 -19 76 -25 91 -17 42 -14 256 4 287 8 14 15 39 15 55 0 17 9 50 20
74 11 23 17 47 14 52 -3 5 11 34 31 64 33 50 38 54 65 48 23 -4 30 -2 30 10 0
8 -9 17 -20 20 -28 7 -25 29 8 60 71 67 90 86 125 126 20 23 37 47 37 52 0 4
12 15 27 23 16 8 38 25 50 38 32 34 46 44 73 51 14 4 48 28 75 53 28 26 64 51
80 57 17 5 42 18 57 29 14 10 33 18 41 18 9 0 22 8 29 18 14 19 113 73 192
104 28 11 65 25 81 33 147 63 364 135 470 155 33 7 74 18 90 26 17 9 66 20
110 25 44 5 103 14 130 19 150 27 221 36 465 60 263 26 1013 -2 1170 -43 30
-8 100 -20 155 -27 55 -7 117 -21 137 -31 21 -11 50 -19 66 -19 31 0 303 -75
330 -91 9 -5 42 -18 72 -28 119 -41 285 -113 340 -147 14 -8 44 -24 67 -35 23
-11 46 -26 50 -33 4 -8 32 -24 61 -36 29 -13 83 -47 120 -76 37 -30 70 -54 75
-54 17 0 6 58 -15 77 -95 84 -523 294 -723 353 -22 6 -54 18 -72 26 -17 8 -37
14 -44 14 -7 0 -63 15 -124 34 -177 55 -530 119 -775 141 -185 16 -791 19
-885 5z"/>
<path d="M1030 3560 c0 -5 5 -10 10 -10 6 0 10 5 10 10 0 6 -4 10 -10 10 -5 0
-10 -4 -10 -10z"/>
<path d="M4845 3400 c3 -5 8 -10 11 -10 2 0 4 5 4 10 0 6 -5 10 -11 10 -5 0
-7 -4 -4 -10z"/>
<path d="M4775 3390 c3 -5 13 -10 21 -10 8 0 14 5 14 10 0 6 -9 10 -21 10 -11
0 -17 -4 -14 -10z"/>
<path d="M4980 3221 c0 -5 5 -13 10 -16 6 -3 10 -2 10 4 0 5 -4 13 -10 16 -5
3 -10 2 -10 -4z"/>
<path d="M1699 3169 c-62 -6 -101 -16 -134 -34 -27 -14 -58 -25 -69 -25 -12 0
-39 -9 -61 -20 -22 -11 -56 -20 -76 -20 -39 0 -97 -33 -137 -79 -49 -55 -75
-92 -68 -98 4 -4 11 -1 16 7 6 8 10 11 10 6 0 -4 16 4 35 18 19 15 49 32 66
38 17 6 49 21 72 34 79 45 152 74 184 74 14 0 40 8 57 19 17 10 97 31 178 47
82 16 148 32 148 37 0 9 -106 7 -221 -4z"/>
<path d="M3665 3160 c-8 -14 6 -17 97 -25 74 -6 102 -14 178 -56 19 -10 46
-19 60 -19 35 0 144 -56 286 -147 75 -49 73 -14 -3 67 -66 70 -117 105 -139
96 -24 -9 -66 4 -60 20 7 18 2 20 -98 49 -70 20 -108 25 -201 25 -65 0 -116
-4 -120 -10z"/>
<path d="M417 3113 c-11 -10 -8 -41 3 -48 15 -9 40 14 40 36 0 19 -29 27 -43
12z"/>
<path d="M2285 2880 c3 -5 11 -10 16 -10 6 0 7 5 4 10 -3 6 -11 10 -16 10 -6
0 -7 -4 -4 -10z"/>
<path d="M1485 2840 c-16 -4 -64 -13 -105 -20 -41 -7 -91 -17 -110 -23 -66
-19 -159 -66 -169 -85 -10 -19 -24 -26 -106 -52 -22 -7 -64 -32 -94 -54 -29
-23 -73 -52 -98 -66 -53 -31 -179 -138 -187 -161 -4 -8 -15 -25 -25 -36 -18
-19 -25 -59 -22 -135 2 -58 111 -136 226 -160 61 -14 256 -16 307 -5 34 8 37
7 52 -25 20 -41 92 -118 110 -118 8 0 16 -6 19 -14 14 -37 522 -307 547 -291
5 3 31 -3 57 -13 76 -30 113 -39 318 -72 185 -30 800 -36 940 -9 64 12 158 27
215 34 79 10 279 68 385 112 33 14 69 29 80 33 11 5 37 14 58 20 21 7 43 20
50 31 6 10 19 19 28 19 9 0 28 9 42 20 14 11 35 20 47 20 13 0 33 10 45 23 13
12 46 42 74 67 28 25 70 62 92 83 23 20 45 37 50 37 5 0 9 6 9 13 1 17 41 63
63 70 11 4 45 0 76 -8 72 -18 251 -21 311 -5 102 27 198 111 201 175 3 47 -4
81 -17 88 -8 4 -14 14 -14 21 0 16 -41 54 -105 97 -43 29 -65 42 -117 67 -4 1
-5 -4 -2 -12 3 -9 11 -16 16 -16 14 0 148 -135 148 -149 0 -18 -38 -13 -50 7
-8 13 -9 9 -4 -19 7 -44 -12 -84 -56 -119 -18 -14 -38 -31 -45 -37 -8 -7 -25
-13 -39 -13 -40 0 -39 -17 2 -33 24 -10 32 -17 22 -20 -68 -23 -92 -27 -154
-27 -62 0 -80 5 -146 38 -91 45 -135 99 -169 204 -13 40 -27 81 -32 90 -5 10
-9 28 -9 40 0 13 -11 47 -25 76 -32 70 -165 204 -165 166 0 -7 47 -71 77 -103
11 -13 34 -49 49 -79 l28 -55 -23 -18 c-13 -11 -27 -17 -31 -14 -9 6 -171 -17
-285 -40 -85 -17 -125 -22 -235 -31 -47 -3 -125 -12 -175 -19 -49 -7 -136 -12
-192 -10 -57 2 -103 0 -103 -5 0 -4 -33 -10 -72 -13 -73 -5 -185 -31 -203 -48
-10 -10 -85 -10 -130 0 -17 4 -50 1 -74 -6 -57 -17 -71 -16 -46 3 11 8 25 12
31 10 7 -3 18 2 24 10 7 8 23 14 36 14 13 0 24 5 24 10 0 12 -60 13 -79 1 -9
-6 -23 -4 -38 6 -16 10 -27 12 -36 5 -6 -5 -27 -10 -45 -10 -18 0 -40 -6 -47
-12 -8 -6 -23 -9 -35 -5 -13 4 -22 1 -26 -9 -3 -9 -14 -16 -23 -16 -13 0 -14
2 -2 9 11 7 4 11 -25 15 -68 11 -128 27 -134 37 -8 11 -107 20 -270 23 -69 1
-131 6 -138 10 -16 10 -151 35 -252 46 -128 15 -181 26 -224 44 -35 16 -38 19
-32 49 4 18 10 57 14 87 4 30 16 67 25 82 28 41 3 43 -31 2 -39 -48 -52 -116
-52 -283 0 -114 -3 -141 -20 -176 -27 -57 -67 -92 -129 -115 -96 -35 -279 -22
-282 20 -1 8 -2 22 -3 30 0 8 -21 25 -46 37 -25 13 -56 36 -70 51 -29 34 -54
44 -68 30 -15 -15 -25 26 -17 70 5 27 24 52 75 101 63 60 141 118 180 131 15
6 92 42 225 105 75 36 96 43 194 71 61 17 63 17 73 0 7 -12 13 -15 17 -7 4 6
34 13 67 16 32 3 75 7 94 10 68 8 455 5 495 -5 22 -5 69 -16 105 -25 87 -21
182 -35 192 -29 15 10 7 19 -30 35 -20 9 -63 28 -96 43 -32 14 -71 26 -85 26
-15 0 -36 7 -47 15 -10 8 -38 15 -61 15 -23 0 -45 5 -48 10 -7 12 -445 12
-490 0z m2063 -527 c-2 -23 -8 -28 -32 -28 -35 0 -59 30 -36 45 8 5 28 10 43
10 25 0 28 -3 25 -27z m-1418 -33 c32 -16 40 -26 40 -48 0 -15 -9 -38 -19 -51
l-18 -24 -20 20 c-20 20 -23 20 -80 5 -32 -9 -67 -12 -77 -9 -17 7 -18 9 -2
25 23 26 20 41 -10 52 -40 15 -18 30 44 30 31 0 64 5 72 10 21 13 25 13 70
-10z m2760 -37 c0 -7 -4 -13 -10 -13 -5 0 -10 12 -10 28 0 21 2 24 10 12 5 -8
10 -21 10 -27z m-3129 -19 c41 -21 34 -46 -14 -57 -42 -10 -59 -34 -35 -51 16
-12 40 -76 37 -98 -4 -30 2 -48 16 -48 27 0 120 -92 121 -120 1 -41 3 -48 17
-53 16 -6 19 22 5 40 -11 14 -1 91 14 110 11 14 -68 29 -100 19 -28 -9 -42 19
-42 86 0 56 5 63 62 101 35 22 51 22 74 -4 15 -16 26 -20 53 -15 54 9 71 -7
71 -64 0 -39 -4 -53 -20 -62 -11 -7 -20 -18 -20 -23 0 -19 66 -36 132 -34 35
1 94 -2 132 -6 60 -7 74 -12 97 -38 25 -27 105 -67 134 -67 22 0 63 49 58 69
-3 12 2 23 14 29 28 14 152 23 210 13 51 -8 101 -40 75 -49 -18 -6 -40 -65
-39 -105 1 -30 7 -39 39 -57 41 -23 51 -50 18 -50 -12 0 -34 -7 -49 -15 -34
-17 -43 -11 -34 23 6 25 6 25 -49 19 -60 -7 -99 6 -133 43 -10 11 -24 20 -30
20 -7 0 -15 6 -18 13 -9 23 -67 8 -77 -19 -11 -28 -53 -41 -86 -25 -31 14 -71
14 -79 1 -3 -5 -26 -10 -50 -10 -38 0 -47 4 -62 28 -33 51 -50 50 -79 -4 -19
-36 -30 -41 -97 -48 -36 -4 -40 -2 -53 30 -16 39 -42 44 -69 14 -26 -28 -38
-25 -79 20 -27 30 -36 49 -36 75 0 23 -6 38 -16 42 -19 7 -34 -13 -34 -48 0
-14 -11 -36 -25 -49 -22 -21 -28 -22 -49 -11 -22 12 -56 68 -56 93 0 7 12 22
28 35 l27 22 -65 1 c-36 0 -70 4 -77 8 -34 21 11 178 74 257 26 32 32 35 81
35 29 0 67 -7 83 -16z m2371 -46 c70 -34 89 -57 78 -98 -5 -23 -11 -25 -70
-28 -92 -4 -107 1 -114 43 -4 21 -15 39 -29 46 -39 21 -50 54 -19 62 46 12 91
5 154 -25z m-1367 -18 c21 -22 44 -40 50 -40 5 0 22 -15 36 -33 83 -104 59
-124 -145 -115 -61 3 -147 2 -191 -2 -92 -8 -111 1 -101 46 12 53 90 124 170
155 104 40 133 38 181 -11z m771 19 c3 -5 -6 -9 -20 -9 -24 0 -41 12 -30 23 7
7 43 -3 50 -14z m1314 2 c0 -6 -4 -13 -10 -16 -5 -3 -10 1 -10 9 0 9 5 16 10
16 6 0 10 -4 10 -9z m-4156 -26 c11 -8 17 -17 14 -20 -3 -3 -16 3 -29 14 -27
23 -14 28 15 6z m3099 -22 c19 -10 62 -18 106 -20 74 -3 101 -14 101 -39 0 -8
5 -14 10 -14 11 0 13 -33 4 -67 -6 -20 -13 -23 -59 -23 -29 0 -69 7 -88 15
-52 21 -85 19 -123 -10 -38 -29 -83 -32 -134 -7 -36 18 -53 44 -64 98 -10 43
11 63 61 57 24 -3 45 1 58 11 27 20 88 20 128 -1z m-3023 -18 c13 -16 3 -20
-24 -9 -9 3 -13 10 -10 15 8 13 20 11 34 -6z m2394 -1 c13 -5 11 -12 -12 -40
-28 -35 -52 -43 -70 -21 -15 18 -19 52 -5 52 6 0 15 3 19 8 9 8 46 9 68 1z
m101 -4 c-3 -5 -12 -10 -20 -10 -8 0 -17 5 -20 10 -4 6 5 10 20 10 15 0 24 -4
20 -10z m-1841 -6 c18 -7 22 -49 5 -59 -7 -5 -5 -15 6 -31 17 -26 13 -44 -11
-44 -21 0 -17 -11 17 -46 28 -29 29 -32 11 -36 -29 -8 -84 21 -143 75 l-52 48
22 29 c11 16 21 35 21 43 0 7 3 17 7 20 8 9 96 9 117 1z m2056 -120 c54 -6 80
-17 80 -36 0 -9 -78 -114 -107 -146 -7 -7 -13 -17 -13 -22 0 -16 -86 -50 -126
-50 -21 0 -61 7 -89 16 -114 36 -109 35 -122 17 -20 -27 -66 -53 -93 -53 -14
0 -38 9 -55 20 -16 11 -40 20 -51 20 -20 0 -22 7 -26 83 -8 127 -6 128 151
125 l126 -3 3 -62 c3 -57 5 -63 25 -63 25 0 77 59 77 87 0 23 9 35 41 55 26
17 81 27 109 21 8 -1 40 -5 70 -9z m608 -47 c11 -9 9 -14 -10 -29 -35 -27 -58
-23 -58 10 0 16 3 32 7 35 8 8 42 -1 61 -16z m-258 -17 c0 -17 -41 -31 -72
-25 -31 7 -28 19 7 28 35 8 65 7 65 -3z m-150 -100 c19 -10 52 -21 74 -24 44
-6 51 -10 41 -25 -9 -16 -43 -13 -105 9 -58 21 -90 25 -90 12 0 -11 92 -52
120 -53 14 0 -8 -10 -49 -20 -63 -17 -76 -18 -95 -6 -11 8 -33 17 -48 21 -37
9 -36 35 2 49 34 13 36 19 15 37 -44 36 66 36 135 0z m-450 -125 c20 -15 48
-25 69 -26 20 -1 47 -4 61 -9 l25 -7 -30 -13 c-18 -7 -50 -10 -82 -6 -30 4
-54 2 -58 -4 -10 -17 -25 -11 -25 10 0 11 -4 20 -10 20 -5 0 -10 7 -10 15 0 8
-4 15 -10 15 -5 0 -10 7 -10 15 0 23 42 18 80 -10z m-750 -7 c11 -12 20 -28
20 -36 0 -9 7 -11 23 -6 20 6 20 5 -5 -15 -14 -11 -40 -21 -57 -21 -27 0 -31
4 -31 27 0 25 -1 25 -19 9 -13 -12 -21 -14 -26 -6 -4 6 -13 9 -19 7 -7 -3 -18
-2 -25 2 -8 5 -4 16 15 34 35 35 94 37 124 5z m268 -31 c21 -17 -5 -34 -54
-35 -47 0 -62 13 -50 43 4 12 15 14 48 9 24 -4 49 -11 56 -17z m-573 -8 c-3
-4 -12 -6 -20 -3 -8 4 -13 10 -10 15 3 4 12 6 20 3 8 -4 13 -10 10 -15z m805
9 c15 -10 29 -10 65 0 59 16 75 15 75 -2 0 -15 -12 -20 -72 -30 -37 -7 -118
17 -118 35 0 13 27 11 50 -3z m-115 -18 c3 -5 -1 -10 -9 -10 -9 0 -16 5 -16
10 0 6 4 10 9 10 6 0 13 -4 16 -10z m44 -29 c8 -5 9 -11 3 -15 -13 -8 -42 3
-42 15 0 11 21 11 39 0z"/>
<path d="M3530 2831 c-31 -4 -65 -13 -77 -19 -12 -7 -41 -12 -64 -12 -24 0
-61 -9 -83 -19 -23 -10 -58 -27 -78 -36 -21 -10 -38 -24 -38 -32 0 -16 31 -14
155 9 94 17 99 17 315 18 185 1 247 -4 318 -25 18 -6 22 -3 22 13 0 19 3 20
38 10 20 -5 41 -14 46 -19 6 -5 25 -9 43 -9 17 0 42 -4 55 -9 13 -5 104 -35
203 -66 99 -31 188 -61 199 -67 37 -19 96 -37 96 -28 0 5 -24 17 -52 28 -29
11 -88 37 -131 57 -43 20 -94 39 -114 42 -20 4 -51 16 -69 28 -54 36 -250 105
-300 105 -25 0 -59 7 -77 16 -25 13 -67 18 -192 20 -88 1 -185 -1 -215 -5z"/>
<path d="M4390 2796 c5 -5 38 -12 72 -14 53 -3 61 -2 50 9 -8 9 -36 14 -72 14
-39 1 -56 -3 -50 -9z"/>
<path d="M4810 2723 c-14 -3 -31 -10 -38 -15 -9 -8 -20 -7 -38 2 -21 12 -30
12 -57 0 -18 -7 -54 -15 -80 -18 -83 -7 -50 -27 49 -29 62 -1 116 -10 179 -29
50 -14 102 -27 117 -28 14 0 24 -4 22 -7 -2 -4 5 -9 16 -12 19 -5 20 0 20 69
l0 74 -82 -1 c-46 -1 -94 -4 -108 -6z"/>
<path d="M697 2664 c-3 -3 -23 -6 -44 -6 -21 0 -43 -4 -49 -9 -12 -9 -97 -6
-129 6 -14 5 -16 4 -7 -3 10 -6 0 -11 -33 -14 -36 -5 -54 -13 -76 -38 -16 -17
-29 -37 -29 -43 1 -32 14 -57 31 -57 11 0 18 -6 16 -12 -4 -24 82 -17 121 10
33 22 73 38 217 87 28 9 60 22 72 27 12 6 39 14 59 17 21 3 39 11 41 17 5 14
-47 29 -56 17 -9 -12 -59 -15 -66 -3 -7 11 -58 14 -68 4z"/>
<path d="M330 770 c0 -5 5 -10 10 -10 6 0 10 5 10 10 0 6 -4 10 -10 10 -5 0
-10 -4 -10 -10z"/>
<path d="M2572 700 c0 -19 2 -27 5 -17 2 9 2 25 0 35 -3 9 -5 1 -5 -18z"/>
<path d="M4860 701 c0 -5 5 -13 10 -16 6 -3 10 -2 10 4 0 5 -4 13 -10 16 -5 3
-10 2 -10 -4z"/>
<path d="M4172 675 c0 -16 2 -22 5 -12 2 9 2 23 0 30 -3 6 -5 -1 -5 -18z"/>
<path d="M4720 645 c0 -33 4 -55 11 -55 7 0 9 9 6 23 -7 24 1 42 20 48 6 2 1
12 -13 22 l-24 18 0 -56z"/>
<path d="M4537 673 c-9 -9 -9 -41 1 -46 4 -3 7 8 8 24 1 31 1 32 -9 22z"/>
<path d="M4882 640 c0 -14 2 -19 5 -12 2 6 2 18 0 25 -3 6 -5 1 -5 -13z"/>
<path d="M3621 634 c0 -11 3 -14 6 -6 3 7 2 16 -1 19 -3 4 -6 -2 -5 -13z"/>
<path d="M230 279 c0 -24 23 -21 28 4 2 10 -3 17 -12 17 -10 0 -16 -9 -16 -21z"/>
<path d="M276 253 c10 -43 19 -46 19 -8 0 22 -5 35 -13 35 -8 0 -10 -9 -6 -27z"/>
<path d="M2655 270 c3 -5 8 -10 11 -10 2 0 4 5 4 10 0 6 -5 10 -11 10 -5 0 -7
-4 -4 -10z"/>
<path d="M3929 258 c-9 -40 -6 -101 6 -124 14 -28 15 -27 15 49 0 45 -4 77
-10 77 -5 0 -10 -1 -11 -2z"/>
<path d="M290 179 c0 -11 4 -18 10 -14 5 3 7 12 3 20 -7 21 -13 19 -13 -6z"/>
<path d="M430 189 c0 -5 5 -7 10 -4 6 3 10 8 10 11 0 2 -4 4 -10 4 -5 0 -10
-5 -10 -11z"/>
<path d="M3017 174 c-8 -8 1 -24 14 -24 5 0 9 7 9 15 0 15 -12 20 -23 9z"/>
<path d="M3381 164 c0 -11 3 -14 6 -6 3 7 2 16 -1 19 -3 4 -6 -2 -5 -13z"/>
<path d="M2776 162 c-3 -5 -1 -22 4 -38 8 -29 8 -29 9 9 1 36 -3 45 -13 29z"/>
<path d="M3546 161 c-4 -7 -5 -15 -2 -18 9 -9 19 4 14 18 -4 11 -6 11 -12 0z"/>
<path d="M290 119 c0 -11 4 -18 10 -14 5 3 7 12 3 20 -7 21 -13 19 -13 -6z"/>
<path d="M750 126 c0 -9 5 -16 10 -16 6 0 10 4 10 9 0 6 -4 13 -10 16 -5 3
-10 -1 -10 -9z"/>
<path d="M3550 120 c0 -5 5 -10 10 -10 6 0 10 5 10 10 0 6 -4 10 -10 10 -5 0
-10 -4 -10 -10z"/>
</g>
</svg>
